<svg xmlns="http://www.w3.org/2000/svg" width="54" height="54" viewBox="0 0 54 54">
  <g id="Group_10051" data-name="Group 10051" transform="translate(9445 4943)">
    <circle id="Ellipse_1" data-name="Ellipse 1" cx="27" cy="27" r="27" transform="translate(-9445 -4943)" fill="#039"/>
    <path id="bbl" d="M34.064,7.512,28.54,0,23.015,7.512C18.848,13.184,17.2,15.729,17.2,19.536c0,3.227.8,4.789,3.707,6.982l7.632,5.747,7.632-5.747c2.908-2.193,3.707-3.756,3.707-6.982C39.879,15.729,38.231,13.184,34.064,7.512Zm-7.22,18.654-.048,1.563c0,.2-.121.227-.242.126C24.566,26.367,22.24,24.6,22.24,24.6a5.775,5.775,0,0,1-2.568-5.117,7.543,7.543,0,0,1,.533-2.9c.024-.076.073-.2.145-.2.048,0,.073.025.1.076.848,1.286,2.2,3.378,3.562,5.092C26.625,24.829,26.892,24.552,26.843,26.165Zm1.7-2.949c-.024,0-.048-.025-.073-.025l-5.355-6.6a3.906,3.906,0,0,1-.945-2.42,2.831,2.831,0,0,1,.582-1.664l5.718-8.167c.024-.025.048-.05.073-.05s.048.025.073.05L34.33,12.5a3.007,3.007,0,0,1,.582,1.664,3.77,3.77,0,0,1-.945,2.42l-5.355,6.6A.087.087,0,0,1,28.54,23.216Zm6.3,1.386s-2.35,1.765-4.313,3.252c-.121.1-.218.076-.242-.126l-.048-1.563c-.048-1.613.218-1.336,2.835-4.613,1.357-1.714,2.714-3.781,3.562-5.092a.13.13,0,0,1,.1-.076c.048,0,.121.126.145.2a8.03,8.03,0,0,1,.533,2.9A5.775,5.775,0,0,1,34.839,24.6Z" transform="translate(-9446.2 -4932)" fill="#fff"/>
  </g>
</svg>
