<svg xmlns="http://www.w3.org/2000/svg" width="54" height="54" viewBox="0 0 54 54">
  <g id="Group_10054" data-name="Group 10054" transform="translate(9429 5034)">
    <circle id="Ellipse_60" data-name="Ellipse 60" cx="27" cy="27" r="27" transform="translate(-9429 -5034)" fill="#00a94f"/>
    <g id="Group_10022" data-name="Group 10022" transform="translate(14 -2)">
      <g id="Group_9938" data-name="Group 9938" transform="translate(-9433 -5022)">
        <ellipse id="Ellipse_58" data-name="Ellipse 58" cx="15.284" cy="15.054" rx="15.284" ry="15.054" transform="translate(1.609 1.609)" fill="#fff"/>
        <g id="Group_9936" data-name="Group 9936" transform="translate(0 0)">
          <g id="Group_9935" data-name="Group 9935" transform="translate(6.047 24.428)">
            <path id="Path_8506" data-name="Path 8506" d="M41.781,92.956a5.4,5.4,0,0,0-2.672-.756,5.939,5.939,0,0,0-2.645.756,6.585,6.585,0,0,1-2.861.783,5.8,5.8,0,0,1-2.591-.729,6.6,6.6,0,0,0-2.888-.783,6.536,6.536,0,0,0-2.672.729,6.692,6.692,0,0,1-2.861.783H22.4c.108.135.243.3.351.432a6.981,6.981,0,0,0,2.861-.81,6,6,0,0,1,2.483-.7,6.173,6.173,0,0,1,2.7.756,6.33,6.33,0,0,0,2.78.783,6.97,6.97,0,0,0,3.05-.837,5.885,5.885,0,0,1,2.483-.7,4.988,4.988,0,0,1,2.483.729,5.886,5.886,0,0,0,2.969.81c.135-.135.243-.3.378-.459-.108,0-.243.027-.351.027a6.3,6.3,0,0,1-2.807-.81" transform="translate(-22.4 -92.2)" fill="#98867d"/>
            <path id="Path_8507" data-name="Path 8507" d="M41.007,95.2a5.939,5.939,0,0,0-2.645.756,6.585,6.585,0,0,1-2.861.783,5.8,5.8,0,0,1-2.591-.729,6.6,6.6,0,0,0-2.888-.783,6.536,6.536,0,0,0-2.672.729A7.741,7.741,0,0,1,25,96.712a4.979,4.979,0,0,0,.378.378,8.122,8.122,0,0,0,2.159-.729,6,6,0,0,1,2.483-.7,6.173,6.173,0,0,1,2.7.756,6.329,6.329,0,0,0,2.78.783,6.97,6.97,0,0,0,3.05-.837,5.519,5.519,0,0,1,2.483-.7,4.989,4.989,0,0,1,2.483.729,6.815,6.815,0,0,0,2.24.783,5.2,5.2,0,0,0,.378-.4,5.863,5.863,0,0,1-2.429-.756,5.147,5.147,0,0,0-2.7-.81" transform="translate(-24.298 -94.39)" fill="#98867d"/>
            <path id="Path_8508" data-name="Path 8508" d="M42.832,98.2a5.939,5.939,0,0,0-2.645.756,6.585,6.585,0,0,1-2.861.783,5.8,5.8,0,0,1-2.591-.729,6.6,6.6,0,0,0-2.888-.783,6.537,6.537,0,0,0-2.672.729,7.673,7.673,0,0,1-1.674.621c.135.108.243.243.378.351.513-.162,1-.378,1.458-.567a6,6,0,0,1,2.483-.7,6.173,6.173,0,0,1,2.7.756,6.33,6.33,0,0,0,2.78.783,6.97,6.97,0,0,0,3.05-.837,5.886,5.886,0,0,1,2.483-.7,5.274,5.274,0,0,1,2.483.7,7.065,7.065,0,0,0,1.512.621c.135-.108.27-.243.4-.351a6.05,6.05,0,0,1-1.7-.675,6.008,6.008,0,0,0-2.7-.756" transform="translate(-26.123 -96.58)" fill="#98867d"/>
            <path id="Path_8509" data-name="Path 8509" d="M44.73,101.3a5.94,5.94,0,0,0-2.645.756,6.584,6.584,0,0,1-2.861.783,5.794,5.794,0,0,1-2.591-.729,6.6,6.6,0,0,0-2.888-.783,6.537,6.537,0,0,0-2.672.729,10.467,10.467,0,0,1-.972.4l.4.324c.27-.108.513-.216.756-.324a6,6,0,0,1,2.483-.7,6.173,6.173,0,0,1,2.7.756,6.33,6.33,0,0,0,2.78.783,6.97,6.97,0,0,0,3.05-.837,5.52,5.52,0,0,1,2.483-.7,4.988,4.988,0,0,1,2.483.729,7,7,0,0,0,.783.378l.4-.324c-.351-.135-.675-.3-1-.459a5.4,5.4,0,0,0-2.7-.783" transform="translate(-28.022 -98.844)" fill="#98867d"/>
            <path id="Path_8510" data-name="Path 8510" d="M46.629,104.3a5.94,5.94,0,0,0-2.645.756,6.585,6.585,0,0,1-2.861.783,5.8,5.8,0,0,1-2.591-.729,6.255,6.255,0,0,0-2.888-.783,6.537,6.537,0,0,0-2.672.729c-.081.054-.189.081-.27.135.135.108.27.189.4.3.027,0,.027,0,.054-.027a6,6,0,0,1,2.483-.7,6.173,6.173,0,0,1,2.7.756,6.329,6.329,0,0,0,2.78.783,6.971,6.971,0,0,0,3.05-.837,5.52,5.52,0,0,1,2.483-.7,4.989,4.989,0,0,1,2.483.729c.027.027.054.027.108.054.135-.081.27-.189.4-.27a2.955,2.955,0,0,1-.3-.162,5.6,5.6,0,0,0-2.726-.81" transform="translate(-29.92 -101.034)" fill="#98867d"/>
            <path id="Path_8511" data-name="Path 8511" d="M45.754,108.129a6.585,6.585,0,0,1-2.861.783,5.794,5.794,0,0,1-2.591-.729,6.6,6.6,0,0,0-2.888-.783,5.351,5.351,0,0,0-2.213.54,4.064,4.064,0,0,0,.459.27,4.633,4.633,0,0,1,1.755-.378,6.173,6.173,0,0,1,2.7.756,6.33,6.33,0,0,0,2.78.783,6.97,6.97,0,0,0,3.05-.837,5.885,5.885,0,0,1,2.483-.7,4.1,4.1,0,0,1,1.836.4c.162-.081.3-.189.432-.27a5.006,5.006,0,0,0-2.267-.567,6.656,6.656,0,0,0-2.672.729" transform="translate(-31.745 -103.297)" fill="#98867d"/>
          </g>
          <path id="Path_8512" data-name="Path 8512" d="M17.276,0A17.178,17.178,0,0,0,0,17.046,17.178,17.178,0,0,0,17.276,34.092,17.178,17.178,0,0,0,34.552,17.046,17.178,17.178,0,0,0,17.276,0Zm0,31.375A14.431,14.431,0,0,1,2.753,17.046,14.431,14.431,0,0,1,17.276,2.717,14.431,14.431,0,0,1,31.8,17.046,14.431,14.431,0,0,1,17.276,31.375" fill="#ed1c2e"/>
        </g>
        <g id="Group_9937" data-name="Group 9937" transform="translate(8.962 5.488)">
          <path id="Path_8513" data-name="Path 8513" d="M74.407,47.835a2.834,2.834,0,0,1-.945,1.35c-.675.54-5.156,3.266-5.669,3.887a3.641,3.641,0,0,0-.594,2.267V60.6h.7v-1.35a2.839,2.839,0,0,1,.81-1.755,39.694,39.694,0,0,1,4.481-3.185,3.362,3.362,0,0,0,1.242-3.023V47.7Z" transform="translate(-58.022 -40.493)" fill="#00a94f"/>
          <path id="Path_8514" data-name="Path 8514" d="M64.015,33.255c.486-.621,5.129-3.428,5.777-3.968a3.333,3.333,0,0,0,1.431-2.4V21a3.737,3.737,0,0,1-1.053,2.24c-.675.891-3.779,2.564-5.318,3.644A3.954,3.954,0,0,0,62.8,30.34V41.083h.675V35.469A3.284,3.284,0,0,1,64.015,33.255Z" transform="translate(-54.81 -21)" fill="#00a94f"/>
          <path id="Path_8515" data-name="Path 8515" d="M38.9,27.3c-1.4-1.08-4.265-3.374-4.616-3.833A3.9,3.9,0,0,1,33.2,21.2v5.48a4.134,4.134,0,0,0,1.728,3.185c1.35,1,3.266,2.429,3.86,3.023a4.363,4.363,0,0,1,1.107,3.1v5.291h.675v-10.5A3.419,3.419,0,0,0,38.9,27.3Z" transform="translate(-33.2 -21.146)" fill="#00a94f"/>
        </g>
      </g>
    </g>
  </g>
</svg>
