<svg xmlns="http://www.w3.org/2000/svg" width="54" height="54" viewBox="0 0 54 54">
  <g id="Group_10027" data-name="Group 10027" transform="translate(9167 4983)">
    <circle id="Ellipse_63" data-name="Ellipse 63" cx="27" cy="27" r="27" transform="translate(-9167 -4983)" fill="#1aa5e1"/>
    <g id="g6429_1_" transform="translate(-8792.125 -4450.941)">
      <path id="path6431_1_" d="M-341.547-496.289s.182-.309.273.123a6.028,6.028,0,0,1-1.246,4.044,6.19,6.19,0,0,1-5.742,1.821,5.837,5.837,0,0,0,5.074-4.352l.122-.463a3.287,3.287,0,0,0,1.519-1.173m9.206-12.594a.283.283,0,0,0-.03-.154s-.061-.247-.213-.679a.444.444,0,0,1-.061-.185h0a.108.108,0,0,0-.03-.062,8.04,8.04,0,0,0-1.671-2.47s.942-.062-.091-1.235a15.8,15.8,0,0,0-5.013-3.611c-1.762-.833-3.767-.494-3.585,1.512a1.764,1.764,0,0,1-2.157,1.821,1.766,1.766,0,0,1-1.7-1.945,3.626,3.626,0,0,1,1.306-2.068,2.949,2.949,0,0,1,1.58-.772c.486-.093,1.154-.278,1.337.309.334-.185.942-1.358-1.033-1.358a.933.933,0,0,0-.972-.525s-1.975-1.975-4.193.463c0,0-.851.34-.911,0,.182.154.516-.309.091-.494-.213-.093-.456.154-.486.339a.506.506,0,0,0,.456.586,1.122,1.122,0,0,0,.334,0l-.152.185c-.668.278-1.276.062-1.4-.4a.254.254,0,0,0,.365-.185.367.367,0,0,0-.334-.463c-.365-.062-.517.37-.456.741a1.145,1.145,0,0,0,1.4.864l-.121.185a16.476,16.476,0,0,0-1.306,1.976c-.608,1.049-3.068,2.222-2.643-.309.122-.8-1.185-1.76-3.524-.154a12.646,12.646,0,0,0-3.889,4.26s-.486.8.334.833c0,0-1.671.8-1.762,4.661h0v.772c0,.432.03.926.061,1.2,0,0,.182,2.315.577,2.716h.061c.122.093.273.124.486-.093h0a23.323,23.323,0,0,0,1.549,4.815c.851,1.729,2.4,4.26,1.792,4.877s-1.458-.617-1.337-.124a1.208,1.208,0,0,0,1.884.741c1.458-1.173-.668-3.982-1.337-7.532,1.4-.617,1.337-2.84,1.337-2.84a2.943,2.943,0,0,0,2.582-2.439,3.1,3.1,0,0,0,3.555-1.42v-.031l.03-.031a4.657,4.657,0,0,0,1.337,1.975,1.786,1.786,0,0,1-1.246,1.389,4.146,4.146,0,0,0-2.886,0c-1.367.556-.82,2.037.182,1.667a.4.4,0,0,1,.091-.772.936.936,0,0,0,.395.185h0a4.533,4.533,0,0,0,2.066-.123c.061-.031.122-.031.182-.093h.03a1.33,1.33,0,0,0,.213-.185.368.368,0,0,1,.091.71.752.752,0,0,0,.79-1.173s.182-.123.425-.309a2.726,2.726,0,0,0,.456-.556,6.541,6.541,0,0,0,2.309,1.019,3.636,3.636,0,0,1-1.944,1.574,3.711,3.711,0,0,0-2.765.154,1.038,1.038,0,0,0-.516.988.885.885,0,0,0,1.063.772c-.243-.123-.79-.741-.091-1.019a.689.689,0,0,0,.486.339h0a3.963,3.963,0,0,0,2.309-.309c.061-.031.091-.031.152-.062a.094.094,0,0,0,.061-.031h0a.52.52,0,0,0,.182-.185c.334-.062.79.093.608.741.395-.062,1.033-.772.091-1.358a5.505,5.505,0,0,0,1-.679l.668-.679a2.877,2.877,0,0,1,2.279,2.994,3.474,3.474,0,0,1-2.187,3.056c.03,0,.091-.031.122-.031l-.152.031h.03a3.357,3.357,0,0,1-.608.062c-1.154-.031-.456-1.389-.456-1.389a.532.532,0,0,0-.516.216,1.4,1.4,0,0,0-.182,1.049c-.061-.031-.122-.031-.152-.062a1.307,1.307,0,0,1-.942-1.2c-.273.123-.456.463-.365,1.049.152.772,1.124,1.111,1.914,1.2.456.463,1.185.926,2.856.648,0,0-.729,3.951-5.651,3.766,0,0-1.489-.556-1.428-1.821a2.615,2.615,0,0,1,1.215-2.284,1.8,1.8,0,0,0-1.914,1.451,2.763,2.763,0,0,0,.4,2.377c-1.853-.494-3.251-1.914-2.674-3.889a2.445,2.445,0,0,1,.516-.9,3.541,3.541,0,0,1,3.463-.525,1.737,1.737,0,0,0-1.7-1.142,3.1,3.1,0,0,0-3.251,3.087c-.152,2.284,1.276,3.951,4.831,4.476l.061.031a6.46,6.46,0,0,0,5.2.71s6.137-1.266,4.831-8.4c0,0,1.428-4.753-1.58-7.439a4.364,4.364,0,0,0,4.132.648c-.152,4.321,1.641,4.877,1.641,4.877l.061-.031s-3.372,7.377-1.4,8.334a1.321,1.321,0,0,0,1.853-.71c.334-.71-.729.679-1.337.093-.729-.741.182-2.5,1.063-4.383a21.47,21.47,0,0,0,2.218-5.68.435.435,0,0,0,.395.031l.03.031c.486-.123.79-2.161.851-2.5a9.913,9.913,0,0,0,.091-4.105" transform="translate(0)" fill="#fff"/>
    </g>
  </g>
</svg>
