<svg xmlns="http://www.w3.org/2000/svg" width="54" height="54" viewBox="0 0 54 54">
  <g id="Group_10023" data-name="Group 10023" transform="translate(9344 4939)">
    <circle id="Ellipse_59" data-name="Ellipse 59" cx="27" cy="27" r="27" transform="translate(-9344 -4939)" fill="#401a71"/>
    <path id="Path_8517" data-name="Path 8517" d="M559.3,221.923c2.233,1.08,4.457,2.178,6.687,3.265a.925.925,0,0,0,.392.078c1.694.005,3.388,0,5.083.01.284,0,.351-.095.349-.374-.012-1.544-.005-3.089-.007-4.633,0-.082-.013-.164-.025-.291-.133.063-.233.114-.335.159a9,9,0,0,1-4.889,1.049,3.006,3.006,0,0,1-1.792-.84,4.414,4.414,0,0,1-1.163-3.2,22.619,22.619,0,0,1,.185-2.977,11.485,11.485,0,0,1,.9-3.367,24.93,24.93,0,0,1,5.391-7.612,30.232,30.232,0,0,1,2.415-1.955.433.433,0,0,1,.6,0c.645.5,1.329.946,1.934,1.49a25.206,25.206,0,0,1,4.088,4.83,15.286,15.286,0,0,1,2.561,5.809,13.408,13.408,0,0,1,.212,4.769,3.329,3.329,0,0,1-3.491,3.118,7.428,7.428,0,0,1-2.693-.492c-.628-.223-1.242-.486-1.9-.745,0,.093-.01.157-.01.222,0,1.544.01,3.089-.009,4.633,0,.347.108.413.412.41,1.642-.014,3.284,0,4.926-.013a1.508,1.508,0,0,0,.628-.149c2.156-1.046,4.306-2.1,6.458-3.158.437-.214.436-.212.317-.695q-1.8-7.324-3.6-14.648a1.042,1.042,0,0,0-.249-.466c-.488-.49-.995-.96-1.5-1.436q-1.425-1.349-2.852-2.7-1.9-1.793-3.812-3.582c-.5-.474-1.007-.947-1.505-1.427-.166-.16-.287-.152-.445.022-.208.228-.445.426-.669.639q-1.493,1.416-2.986,2.832-1.589,1.5-3.184,2.994c-.775.727-1.562,1.442-2.327,2.18a2.137,2.137,0,0,0-.769,1.031q-1.774,7.314-3.586,14.619C558.957,221.637,559.013,221.784,559.3,221.923Z" transform="translate(-9890.003 -5122.893)" fill="#f99410"/>
  </g>
</svg>
